<?xml version="1.0" encoding="utf-8"?>
<!-- Generator: Adobe Illustrator 24.1.2, SVG Export Plug-In . SVG Version: 6.00 Build 0)  -->
<svg version="1.1" id="Layer_1" xmlns="http://www.w3.org/2000/svg" xmlns:xlink="http://www.w3.org/1999/xlink" x="0px" y="0px"
	 viewBox="0 0 753.23 259.52" style="enable-background:new 0 0 753.23 259.52;" xml:space="preserve">
<path d="M148.79,127.48H72.01v71.61H38.79V29.05h33.22v68.66h76.78V29.05h33.47v170.04h-33.47V127.48z"/>
<path d="M535.19,29.05h34.94v170.04h-32.97V79l-51.18,68.66L434.79,79v120.09h-32.97V29.05h34.94l49.22,66.69L535.19,29.05z"/>
<path d="M597.85,29.05h110.49v29.78h-77.27v38.88h49.46v29.78h-49.46v41.83h77.27v29.78H597.85V29.05z"/>
<g>
	<path d="M296.91,173.68c5.06-0.87,11.5-2.7,13.15-3.73c0.95-0.6,0.92-1.23-0.24-4.71c-0.74-2.21-1.54-4.52-1.79-5.14
		c-0.34-0.85-0.14-0.81,0.83,0.15c0.7,0.7,2.77,2.5,4.61,4c3.19,2.62,3.42,2.68,5.46,1.62c3.55-1.85,8.56-5.74,8.56-6.64
		c0-0.47-1.75-3.7-3.88-7.18l-3.88-6.33l-10.68-0.09c-5.87-0.05-12.87-0.3-15.55-0.57l-4.88-0.48l3.37-1.69
		c1.85-0.93,8.11-3.74,13.92-6.24c5.8-2.5,10.79-4.8,11.08-5.12c1.04-1.12-0.88-17.11-2.71-22.48c-0.99-2.93-3.37-9.88-5.28-15.44
		c-1.91-5.57-3.33-10.26-3.16-10.43c0.29-0.29,3.81,5.47,11.9,19.42c2.37,4.09,4.27,9.09,6.8,17.93l3.51,12.26l5.48,6.08
		c3.02,3.34,5.75,6.08,6.08,6.08c0.33,0,1.61-2.13,2.84-4.73c8.08-17,8.2-34.63,0.34-52c-2.25-4.97-7.48-12.86-8.52-12.86
		c-0.88,0-1.65,1.82-3.34,7.94c-1.95,7.05-2.77,8.26-2.29,3.4c1.5-15.28,1.49-15.79-0.45-17.87c-7.7-8.28-26.33-15.43-40.07-15.39
		c-6.67,0.02-6.69,0.09-3.1,10.32l3.14,8.95l-0.8,12.01c-0.44,6.6-1.08,12.73-1.42,13.61c-0.6,1.56-0.63,1.56-1.07-0.28
		c-0.5-2.09-3.87-19.93-4.6-24.39c-0.5-3-0.82-3.31-10.58-10.43c-4.07-2.97-5.68-3.73-7.09-3.38c-5.48,1.38-18.94,12.88-23.7,20.26
		l-2.33,3.62l3.5,5.27c1.93,2.9,3.19,5.27,2.8,5.27c-0.65,0-4.27-2.75-6.82-5.18c-0.92-0.88-1.23-0.83-2.05,0.28
		c-1.33,1.82-3.69,9.54-4.83,15.76c-0.93,5.12-0.7,16.91,0.39,19.59c0.7,1.73,1.26,1.68,7.55-0.65c2.92-1.08,7.86-2.91,10.98-4.07
		c6.46-2.39,4.92-0.22,15.14-21.19c3.68-7.56,5.91-11.44,5.65-9.83c-0.24,1.46-0.92,5.88-1.51,9.83c-0.59,3.95-1.45,9.4-1.9,12.1
		c-0.45,2.7-1.02,6.37-1.26,8.14c-0.49,3.65-0.81,4.01-15.61,17.83c-5.8,5.42-9.59,9.52-9.59,10.4c0,1.57,10.25,12.82,11.63,12.76
		c0.47-0.02,3.18-2.93,6.04-6.47c2.85-3.54,5.33-6.3,5.49-6.13c0.33,0.33-0.84,3.29-4.32,10.89c-1.26,2.74-2.14,5.37-1.96,5.84
		c0.4,1.04,8.55,5.14,13.75,6.91C278.42,174.09,288.79,175.08,296.91,173.68L296.91,173.68z M276.82,186.97
		c-24.45-4.46-44.1-19.3-54.65-41.25c-8.05-16.75-9.4-35.16-3.95-53.7c6.43-21.89,25.92-41.62,47.81-48.42
		c15.59-4.84,29.44-4.84,45.03,0c33.97,10.55,56.35,47.18,50.13,82.07c-3.37,18.89-12.43,34.4-26.86,45.97
		C318.05,184.68,296.19,190.5,276.82,186.97L276.82,186.97z M307.83,197.21c16.33-4.07,29.2-11.27,40.66-22.74
		c18.47-18.47,27.17-43.13,24.49-69.42c-1.25-12.22-3.34-19.58-8.45-29.69c-10.89-21.57-31.36-38.09-54.9-44.33
		c-6.75-1.79-8.81-1.98-21.1-1.98c-12.28,0-14.35,0.19-21.1,1.98c-14.44,3.83-28.04,11.64-38.72,22.25
		C210,71.9,201.39,96.21,204.1,122.83c1.25,12.22,3.34,19.58,8.45,29.69c12.57,24.89,37.82,42.92,64.65,46.16
		C285.11,199.63,301.22,198.86,307.83,197.21L307.83,197.21z"/>
</g>
</svg>
