<?xml version="1.0" encoding="utf-8"?>
<!-- Generator: Adobe Illustrator 24.1.2, SVG Export Plug-In . SVG Version: 6.00 Build 0)  -->
<svg version="1.1" id="Layer_1" xmlns="http://www.w3.org/2000/svg" xmlns:xlink="http://www.w3.org/1999/xlink" x="0px" y="0px"
	 viewBox="0 0 1417.05 586.29" style="enable-background:new 0 0 1417.05 586.29;" xml:space="preserve">
<style type="text/css">
	.st0{fill:#FF4654;}
	.st1{fill:none;}
</style>
<rect x="-1518.39" y="-1538.83" class="st1" width="860.21" height="122.87"/>
<text transform="matrix(1 0 0 1 -1518.3918 -1453.6289)" style="font-family:'MyriadPro-Regular'; font-size:120px;">Valorant Lineups</text>
<text transform="matrix(1 0 0 1 3073.5823 -1846.2124)"><tspan x="0" y="0" style="font-family:'MyriadPro-Regular'; font-size:120px;">Valorant </tspan><tspan x="0" y="144" style="font-family:'MyriadPro-Regular'; font-size:120px;">Lineups</tspan></text>
<text transform="matrix(1 0 0 1 -5720.6479 -4521.7061)" style="font-family:'SourceSansPro-Light'; font-size:1048.7294px;">Valorant</text>
<text transform="matrix(1 0 0 1 -3860.1389 -3982.0371)" style="font-family:'SourceSansPro-Light'; font-size:764.3219px;">Lineups</text>
<path class="st0" d="M10.04,51.12h14.23L77.86,216.9c10.89,34.33,18.42,59.44,30.14,93.35h1.67c11.72-33.91,19.26-59.03,30.14-93.35
	L193.4,51.12h13.4l-91.26,276.29h-13.39L10.04,51.12z"/>
<path class="st0" d="M229.4,278.43c0-44.79,41.03-65.73,131.45-75.77c0.84-32.65-7.53-68.65-49.4-68.65
	c-28.47,0-52.75,14.23-65.31,24.28l-6.7-10.05c12.56-9.21,40.19-25.96,72.84-25.96c46.89,0,61.12,35.17,61.12,75.35v129.77h-10.89
	l-1.68-26.79h-0.84c-20.93,16.75-46.05,31.82-72.84,31.82C256.19,332.44,229.4,316.53,229.4,278.43z M360.85,286.39v-72.84
	c-87.91,10.05-118.05,30.14-118.05,64.47c0,30.98,20.93,42.7,45.21,42.7S334.05,309,360.85,286.39z"/>
<path class="st0" d="M447.92,305.65V25.17h12.56v282.99c0,8.37,3.35,12.56,8.37,12.56c1.68,0,3.35,0,7.54-0.84l2.51,10.89
	c-3.35,0.84-5.86,1.68-10.89,1.68C455.45,332.44,447.92,324.9,447.92,305.65z"/>
<path d="M766.9,127.31h10.89l1.67,37.67h0.84c13.39-24.28,32.65-42.7,56.93-42.7c6.7,0,12.56,0.84,19.25,4.18l-3.35,11.72
	c-6.7-2.51-10.05-3.35-17.58-3.35c-18.42,0-40.19,14.23-56.1,53.58v138.98H766.9V127.31z"/>
<path d="M871.57,278.43c0-44.79,41.02-65.73,131.45-75.77c0.84-32.65-7.54-68.65-49.4-68.65c-28.46,0-52.74,14.23-65.31,24.28
	l-6.7-10.05c12.56-9.21,40.19-25.96,72.84-25.96c46.88,0,61.12,35.17,61.12,75.35v129.77h-10.89l-1.67-26.79h-0.84
	c-20.93,16.75-46.05,31.82-72.84,31.82C898.36,332.44,871.57,316.53,871.57,278.43z M1003.01,286.39v-72.84
	c-87.91,10.05-118.05,30.14-118.05,64.47c0,30.98,20.93,42.7,45.21,42.7C954.45,320.72,976.22,309,1003.01,286.39z"/>
<path d="M1090.08,127.31h10.88l1.68,31.81h0.84c20.93-20.93,41.86-36.84,69.49-36.84c41.02,0,60.28,24.28,60.28,76.19v128.93h-12.56
	V200.15c0-44.37-14.23-66.14-48.56-66.14c-25.12,0-43.53,13.4-69.49,40.19v153.21h-12.56V127.31z"/>
<path d="M1314.46,274.67V139.03h-31.82v-10.05l31.82-1.67l1.68-58.61h10.88v58.61h59.44v11.72h-59.44v137.31
	c0,25.96,5.86,44.37,35.17,44.37c7.54,0,18.42-3.35,25.96-6.7l4.18,10.88c-11.72,4.19-24.28,7.54-30.98,7.54
	C1324.5,332.44,1314.46,309,1314.46,274.67z"/>
<g>
	<g>
		<path d="M674.46,364.34h7.55v149.12h73.14v6.61h-80.69V364.34z"/>
		<path d="M778.98,370.48c0-5.19,3.78-8.02,8.02-8.02c4.25,0,8.02,2.83,8.02,8.02c0,4.72-3.78,8.02-8.02,8.02
			C782.76,378.5,778.98,375.2,778.98,370.48z M783.23,407.28h7.08v112.78h-7.08V407.28z"/>
		<path d="M836.79,407.28h6.13l0.94,17.93h0.47c11.8-11.8,23.59-20.76,39.17-20.76c23.12,0,33.98,13.68,33.98,42.94v72.67h-7.08
			v-71.73c0-25.01-8.02-37.28-27.37-37.28c-14.16,0-24.54,7.55-39.17,22.65v86.36h-7.08V407.28z"/>
		<path d="M952.16,463.91c0-36.81,23.59-59.46,48.6-59.46c25.95,0,42.47,18.4,42.47,51.91c0,2.36,0,4.72-0.47,7.55h-83.05
			c0,30.2,17.46,52.38,44.36,52.38c12.74,0,22.65-4.25,31.14-10.38l3.3,6.13c-8.49,5.19-17.93,10.85-34.92,10.85
			C975.29,522.9,952.16,500.72,952.16,463.91z M1036.16,457.3c0-31.14-14.16-46.25-35.39-46.25c-20.29,0-38.7,17.46-41.05,46.25
			H1036.16z"/>
		<path d="M1074.15,479.96v-72.67h7.08v71.73c0,25.01,8.02,37.28,27.37,37.28c14.16,0,24.54-7.55,38.7-24.54v-84.47h7.08v112.78
			h-6.13l-0.94-19.35h-0.47c-11.33,13.21-23.12,22.18-38.7,22.18C1085,522.9,1074.15,509.21,1074.15,479.96z"/>
		<path d="M1200.85,407.28h6.13l0.94,14.63h0.47c11.33-8.97,25.01-17.46,39.17-17.46c30.67,0,45.3,22.65,45.3,57.57
			c0,38.22-23.12,60.87-50.02,60.87c-10.85,0-22.65-5.19-34.92-14.16v21.24v42.47h-7.08V407.28z M1285.32,462.02
			c0-28.79-10.38-50.96-38.22-50.96c-11.8,0-24.54,7.08-39.17,19.82v69.84c13.68,11.33,26.43,15.57,35.39,15.57
			C1267.86,516.29,1285.32,493.64,1285.32,462.02z"/>
		<path d="M1314.81,507.33l4.72-5.66c9.44,8.02,19.82,14.63,36.81,14.63c18.88,0,28.79-11.33,28.79-24.07
			c0-15.1-15.1-21.71-28.31-26.43c-17.46-6.13-36.81-12.74-36.81-32.09c0-15.57,12.27-29.26,35.39-29.26
			c11.33,0,23.12,4.72,31.14,11.33l-4.25,5.66c-7.55-5.66-15.57-10.38-27.37-10.38c-18.88,0-27.37,11.09-27.37,22.18
			c0,13.68,13.68,18.88,27.37,24.07c17.93,6.84,37.75,12.27,37.75,34.45c0,16.52-13.21,31.14-36.81,31.14
			C1338.88,522.9,1324.72,515.82,1314.81,507.33z"/>
	</g>
</g>
<path class="st1" d="M690.72,227.78c0-23.56-5.95-44.07-16.07-59.85v119.38C684.76,271.69,690.72,251.35,690.72,227.78z"/>
<path d="M674.64,146.76v21.17c10.12,15.79,16.07,36.29,16.07,59.85c0,23.56-5.95,43.91-16.07,59.52v20.74
	c17.94-17.91,29.47-45.21,29.47-80.27C704.11,192.28,692.58,164.78,674.64,146.76z"/>
<path class="st0" d="M615.36,320.72c-42.7,0-75.35-37.68-75.35-92.93c0-55.26,32.65-93.77,75.35-93.77
	c24.49,0,45.66,12.69,59.28,33.92v-21.17c-15.91-15.97-36.85-24.48-59.28-24.48c-47.72,0-88.75,38.51-88.75,105.5
	c0,66.14,41.03,104.66,88.75,104.66c22.43,0,43.37-8.51,59.28-24.39v-20.74C661.03,308.3,639.86,320.72,615.36,320.72z"/>
</svg>
