<?xml version="1.0" encoding="utf-8"?>
<!-- Generator: Adobe Illustrator 24.1.2, SVG Export Plug-In . SVG Version: 6.00 Build 0)  -->
<svg version="1.1" id="Layer_1" xmlns="http://www.w3.org/2000/svg" xmlns:xlink="http://www.w3.org/1999/xlink" x="0px" y="0px"
	 viewBox="0 0 924 190" style="enable-background:new 0 0 924 190;" xml:space="preserve">
<style type="text/css">
	.st0{stroke:#000000;stroke-width:2;stroke-miterlimit:10;}
</style>
<g>
	<path d="M314.71,93.38c0-47.36,38.24-80.05,81.82-80.05c37.8,0,66.48,21.12,76.27,54.48h-33.35
		c-7.34-17.12-21.12-27.35-42.91-27.35c-27.13,0-50.92,21.57-50.92,52.92s22.9,53.14,50.92,53.14c22.46,0,35.8-10.23,42.91-27.35
		h33.35c-10.01,33.35-38.47,54.48-76.27,54.48C352.95,173.65,314.71,140.96,314.71,93.38z"/>
	<path d="M499.02,13.95h103.77v27.96h-72.57v36.52h46.45v27.96h-46.45v39.29h72.57v27.96H499.02V13.95z"/>
	<path d="M630.52,13.95h30.74l71.41,112.09V13.95h30.74v159.7h-30.74L661.03,64.33v109.32h-30.51V13.95z"/>
	<path d="M909.48,41.92h-46.69v131.74h-31.43V41.92h-46.69V13.95h124.8V41.92z"/>
	<g>
		<path d="M176.73,123.26h36.06c1.41,14.6,11.55,23.44,26.16,23.44c11.78,0,20.97-5.75,20.97-15.92c0-9.73-7.07-15.92-20.97-21.01
			l-20.27-7.3c-21.45-7.74-39.12-22.56-39.12-46.23c0-25.66,23.8-42.91,54.2-42.91c25.92,0,51.85,11.5,57.03,47.99h-35.82
			c-1.65-12.83-10.61-21.23-22.39-21.23c-9.66,0-18.62,5.31-18.62,14.82s7.31,15.48,21.68,20.79l18.38,6.63
			c23.8,8.63,41.01,21.9,41.01,46.23c0,28.09-27.34,45.12-57.03,45.12C201.48,173.69,177.91,150.91,176.73,123.26z"/>
	</g>
	<g>
		<path class="st0" d="M157.11,76.23c-1.77-3.45-7.03-8.63-34.03-33.5C105.51,26.56,90.54,13.32,89.8,13.32
			c-0.74,0-15.63,13.15-33.08,29.22C17.96,78.22,20.41,74.83,20.4,93.02c0,6.74,0.23,12.47,0.52,12.74
			c0.28,0.26,1.36-0.03,2.38-0.66c2.51-1.53,8.04-1.44,11,0.18c1.32,0.72,3.16,2.45,4.08,3.83c1.53,2.29,1.7,3.64,1.94,15.2
			l0.25,12.68l5.65,3.64c3.11,2,5.86,3.64,6.11,3.64c0.25,0,0.45-6.45,0.45-14.34c0-12.42,0.2-14.83,1.49-17.98
			c1.57-3.84,5.03-8.57,6.26-8.57c0.45,0,0.73,12,0.73,31.21c0,28.81,0.1,31.3,1.35,32.34c2.88,2.42,9.78,6.76,10.74,6.76
			c0.83,0,1.02-7.3,1.02-39.69c0-46.18,0.13-45.13-6.49-51.14c-3.57-3.23-6.56-4.76-12.77-6.51c-0.75-0.21,4.65-5.7,15.81-16.08
			c9.32-8.67,17.5-16.05,18.16-16.42c0.96-0.52,4.91,2.78,18.85,15.76c11.3,10.52,17.24,16.54,16.53,16.74
			c-8.51,2.37-14.04,6.09-17.18,11.56c-1.65,2.87-1.67,3.41-1.89,44.33c-0.18,34.3-0.04,41.43,0.82,41.43
			c1.04,0,10.47-6.15,11.53-7.52c0.31-0.4,0.57-14.72,0.58-31.82c0.01-23.81,0.23-31.02,0.93-30.8c1.46,0.45,5.9,6.84,6.76,9.75
			c0.43,1.45,0.79,5.45,0.79,8.88c0,3.43,0.3,6.4,0.66,6.61c0.53,0.31,8.58-4.57,11.22-6.8c0.38-0.32,0.94-3.2,1.24-6.4
			c0.5-5.28,0.78-6.04,3.09-8.26c3.7-3.55,9.22-4.39,13.95-2.11l2.24,1.08V93.29C159.2,80.65,159.15,80.2,157.11,76.23L157.11,76.23
			z"/>
	</g>
</g>
</svg>
