<?xml version="1.0" encoding="utf-8"?>
<!-- Generator: Adobe Illustrator 24.1.2, SVG Export Plug-In . SVG Version: 6.00 Build 0)  -->
<svg version="1.1" id="Layer_1" xmlns="http://www.w3.org/2000/svg" xmlns:xlink="http://www.w3.org/1999/xlink" x="0px" y="0px"
	 viewBox="0 0 912 308" style="enable-background:new 0 0 912 308;" xml:space="preserve">
<g>
	<path d="M17.09,23.62h92.04c58.78,0,91.27,25.36,91.27,63.99c0,36.68-30.16,57.36-66.52,62.82v0.78
		c47.57,1.95,81.6,25.36,81.6,65.94c0,43.7-33.26,76.08-97.07,76.08H17.09V23.62z M106.42,132.47c28.62,0,40.22-12.49,40.22-31.99
		c0-20.29-11.22-31.99-39.45-31.99H69.3v63.99H106.42z M116.47,248.35c34.03,0,46.02-16,46.02-36.29
		c0-19.51-12.76-35.89-46.02-35.89H69.3v72.18H116.47z"/>
	<path d="M243.7,293.22v-47.21h73.09V70.83H243.7V23.62h199.16v47.21h-73.47v175.18h73.47v47.21H243.7z"/>
	<path d="M490.03,23.62h51.43l119.49,189.23V23.62h51.43v269.6h-51.43L541.08,108.67v184.55h-51.05V23.62z"/>
	<path d="M795.92,163.83c-3.49-6.61-34.86-39.98-37.84-40.27v152.69c0.34,0.3,0.61,0.32,0.83,0.14c0.37-0.3,5.7-13.03,11.85-28.29
		C799.54,176.76,800.7,172.88,795.92,163.83z"/>
	<path d="M897.22,135.04c-6.94-49.53-45.7-90.23-98.92-103.87c-11.51-2.95-16.93-4.42-20.44-5.79c-1.29-0.5-2.66-0.76-4.05-0.76
		h-2.5c-6.23,0-11.29,5.1-11.29,11.39v49.44c0.01,0,0.02-0.01,0.03-0.01c1.86,0,57.79,51.36,63.14,59.18
		c3.04,4.44,5.93,19.12,5.98,25.77c0.08,9-9.93,14.23-39.89,95.87c-4.78,13.02-8.69,24.21-8.69,24.86c0,2.25,2.64,1.15,10.68-4.45
		c4.45-3.1,10.01-6.94,12.35-8.54c37.42-25.53,50.83-35.35,58.26-42.63C889.42,208.49,902.35,171.71,897.22,135.04z"/>
</g>
</svg>
