<?xml version="1.0" encoding="utf-8"?>
<!-- Generator: Adobe Illustrator 24.1.2, SVG Export Plug-In . SVG Version: 6.00 Build 0)  -->
<svg version="1.1" id="Layer_1" xmlns="http://www.w3.org/2000/svg" xmlns:xlink="http://www.w3.org/1999/xlink" x="0px" y="0px"
	 viewBox="0 0 927 233" style="enable-background:new 0 0 927 233;" xml:space="preserve">
<g>
	<path d="M141.77,126.13H56.67v79.36H19.86V17.04h36.82v76.09h85.09V17.04h37.09v188.46h-37.09V126.13z"/>
	<path d="M333.13,156.67h-81.82l-47.73,52.09v-51.27l129-140.46h37.36v188.46h-36.82V156.67z M280.49,125.04h52.64V67.76
		L280.49,125.04z"/>
	<path d="M598.59,17.04h122.46v33H635.4v43.09h54.82v33H635.4v46.36h85.64v33H598.59V17.04z"/>
	<path d="M752.77,17.04h36.27l84.27,132.27V17.04h36.27v188.46h-36.27l-84.55-129v129h-36V17.04z"/>
	<g>
		<path d="M478.1,121.43c1-2.6,0.51-5.32-1.93-10.79c-3.34-7.49-9.94-33.64-9.98-39.54c-0.04-5.47,3.08-12.79,7.02-16.53
			c2.3-2.18,2.53-2.22,5.86-1.08c2.94,1.01,3.98,1.01,6.89,0c3.29-1.14,3.52-1.1,5.83,1.08c3.95,3.74,7.05,11.07,7.02,16.53
			c-0.04,5.9-6.64,32.06-9.98,39.54c-1.35,3.03-2.45,6.52-2.44,7.75c0.02,2.71,1.62,5.38,2.27,3.79c0.24-0.58,1.28-2.32,2.32-3.88
			c1.04-1.56,4.75-7.48,8.24-13.17c3.49-5.69,7.22-11.69,8.3-13.35c9.58-14.83,16.64-26.93,16.27-27.89
			c-0.25-0.64-1.44-1.69-2.65-2.34c-3.94-2.11-10.21-9.87-13.51-16.73c-5.78-12.01-10.89-18.5-19.95-25.34
			c-4.32-3.26-6.02-3.26-10.34,0c-9.07,6.85-14.14,13.3-19.72,25.08c-3.19,6.74-9.76,14.87-13.74,17c-1.21,0.65-2.4,1.7-2.65,2.34
			c-0.36,0.95,6.66,13.01,15.99,27.46c5.44,8.42,16.46,26.27,17.69,28.64C476.52,123.1,477.32,123.47,478.1,121.43L478.1,121.43z
			 M486.29,200.76c1.3-2.37,5.2-9.54,8.67-15.94c3.47-6.4,6.9-12.31,7.61-13.14c1.82-2.11,5.77-1.9,7.96,0.43
			c1.87,1.99,1.88,2.7,0.28,11.63c-0.79,4.42,0.98,3.38,5.13-3.02c7.12-10.96,27.03-42,41.04-63.97
			c7.7-12.08,14.7-22.96,15.55-24.18c0.85-1.22,2.65-4.32,4-6.89c2.15-4.09,2.46-5.6,2.45-12c-0.01-5.9-0.38-8.02-1.92-10.92
			c-2.08-3.92-12.87-16.65-14.1-16.65c-0.42,0-0.76,1.92-0.76,4.28c0,6.14-2.91,13.17-7.29,17.61c-3.93,3.99-8.07,5.89-19.91,9.13
			l-6.9,1.89l-3.34,5.3c-1.84,2.91-4.58,7.24-6.1,9.61c-1.52,2.37-6.36,10.12-10.76,17.23c-9.36,15.12-10.12,16.33-17.04,27.22
			c-2.89,4.55-5.73,9.3-6.3,10.55c-0.57,1.26-1.5,2.29-2.06,2.29c-0.56,0-1.48-1.03-2.06-2.29c-0.57-1.26-3.41-6.01-6.3-10.55
			c-6.93-10.89-7.68-12.1-17.04-27.22c-4.4-7.11-9.24-14.86-10.76-17.23c-1.52-2.37-4.26-6.69-6.09-9.59l-3.33-5.29l-8.66-2.38
			c-10.41-2.87-14.55-4.83-18.29-8.68c-4.33-4.45-6.51-9.48-6.98-16.08c-0.23-3.22-0.73-5.74-1.12-5.6
			c-1.53,0.54-12.09,13.01-13.91,16.42c-1.58,2.96-1.94,5.02-1.94,10.96c0,6.38,0.32,7.93,2.46,12c1.35,2.57,3.15,5.68,4,6.89
			c0.85,1.22,7.85,12.1,15.55,24.18c14,21.97,33.92,53.01,41.04,63.97c2.08,3.2,4.15,5.82,4.61,5.82c1.03,0,1.03,0.01-0.1-6.52
			c-0.81-4.64-0.74-5.68,0.53-7.61c1.76-2.69,6.3-3.09,8.33-0.73c0.71,0.83,3.93,6.35,7.14,12.28
			c7.64,14.07,10.92,20.09,11.41,20.94C481.89,206.5,484.08,204.79,486.29,200.76L486.29,200.76z"/>
	</g>
</g>
</svg>
